<svg xmlns="http://www.w3.org/2000/svg" viewBox="0 0 860 340" width="860" height="340">
  <rect width="860" height="340" fill="#3B78C9"/>
  <!-- FLY KID FLY wordmark scaled 2.5x, centered -->
  <g transform="translate(43.75, 30) scale(2.5)">
    <path d="M275.89 12.5901C276.43 12.5201 276.97 12.4501 277.52 12.3701C277.59 12.3701 277.66 12.3001 277.72 12.3101C278.66 12.5201 279.65 12.5701 280.42 13.2801C280.9 13.7101 281.36 14.1201 281.77 14.6301C282.51 15.5701 282.74 16.6201 282.65 17.7401C282.57 18.7201 282.41 19.7201 282.09 20.6501C281.7 21.8201 281.14 22.9501 280.61 24.0701C280.12 25.1201 279.43 26.0901 279.1 27.1801C278.74 28.4101 278.46 29.7301 279.16 30.9901C279.39 31.4101 279.55 31.8701 279.77 32.3001C279.95 32.6501 280.91 33.0101 281.32 32.8501C281.7 32.7001 282.04 32.4501 282.4 32.2301C282.56 32.1301 282.72 32.0201 282.87 31.9001C283.02 31.7801 283.2 31.6801 283.28 31.5301C284.01 30.2201 284.56 28.8301 284.76 27.3401C284.82 26.8901 284.57 26.4101 284.55 25.9401C284.51 25.0701 284.5 24.2101 284.54 23.3401C284.6 22.1801 284.69 21.0101 284.81 19.8501C284.96 18.5001 285.35 17.2001 285.89 15.9601C286.26 15.1101 286.96 14.5301 287.88 14.2101C288.39 14.0301 288.83 13.6801 289.32 13.4401C289.58 13.3101 289.87 13.2201 290.16 13.1901C290.89 13.0901 291.63 13.0401 292.36 12.9601C292.41 12.9601 292.47 12.9301 292.52 12.9601C293.07 13.1901 293.63 13.4101 294.17 13.6601C294.69 13.9101 295.26 14.1101 295.68 14.4801C296.24 14.9601 296.7 15.5601 297.15 16.1501C297.42 16.5001 297.55 16.9501 297.78 17.3401C298.11 17.9101 298.19 18.5001 298.11 19.1401C298.06 19.5101 298.16 19.8901 298.16 20.2601C298.16 20.7401 298.18 21.2301 298.12 21.7001C297.95 23.0101 297.83 24.3401 297.5 25.6201C297.2 26.7901 296.65 27.8901 296.22 29.0201C296.06 29.4601 295.96 29.9201 295.78 30.3501C295.22 31.7101 294.24 32.7901 293.31 33.9001C292.18 35.2501 291 36.5701 289.75 37.8201C288.9 38.6701 287.85 39.3201 286.98 40.1501C286.29 40.8101 285.67 41.5601 285.11 42.3401C284.46 43.2501 283.88 44.2101 283.36 45.1901C282.94 45.9901 282.59 46.8401 282.33 47.7101C282.07 48.5601 281.92 49.4401 281.77 50.3201C281.64 51.1001 281.61 51.9001 281.47 52.6701C281.33 53.4401 281.19 54.2401 280.9 54.9601C280.36 56.3001 279.65 57.5601 278.63 58.6101C277.7 59.5701 276.62 60.4001 275.33 60.7801C274.28 61.0901 273.17 61.1601 272.08 61.3101C271.85 61.3401 271.61 61.2401 271.37 61.2101C269.94 61.0301 268.6 60.6601 267.32 59.9001C265.83 59.0101 265.41 57.6201 265.08 56.1501C264.75 54.6901 265.25 53.3201 265.77 51.9901C266.11 51.1101 266.51 50.2301 267 49.4301C267.4 48.7801 267.99 48.2401 268.5 47.6501C268.6 47.5301 268.72 47.4301 268.82 47.3101C269.36 46.5701 269.99 45.8701 270.4 45.0601C270.79 44.2901 271.05 43.4301 271.22 42.5801C271.68 40.1801 270.91 38.0301 269.77 35.9501C268.84 34.2501 267.78 32.5901 267.24 30.7201C266.95 29.7001 266.8 28.6301 266.68 27.5801C266.55 26.4601 266.47 25.3301 266.48 24.2101C266.48 23.4401 266.68 22.6601 266.81 21.9001C267.09 20.2901 267.68 18.7801 268.56 17.4101C269.16 16.4801 269.92 15.6501 270.63 14.7901C270.88 14.4801 271.17 14.1801 271.5 13.9701C271.88 13.7301 272.31 13.5801 272.74 13.4201C273.36 13.1901 273.99 12.9701 274.63 12.7801C275.03 12.6601 275.45 12.6201 275.87 12.5501V12.6101L275.89 12.5901Z" fill="#FEFCEF"/>
<path d="M207.36 55.44C207.62 54.21 207.77 52.95 208.16 51.76C208.51 50.69 209.08 49.68 209.6 48.67C210.17 47.54 210.76 46.42 211.38 45.32C211.66 44.82 212.01 44.35 212.36 43.89C213.64 42.17 214.59 40.27 215.36 38.28C215.63 37.59 215.74 36.84 215.92 36.11C216 35.81 216.01 35.48 216.14 35.2C216.77 33.83 216.75 32.36 216.86 30.91C216.93 29.95 216.78 28.96 216.86 28C216.97 26.44 216.99 24.87 217.59 23.38C217.98 22.39 218.26 21.35 218.72 20.4C219.32 19.16 220.08 18.01 221.09 17.06C221.77 16.42 222.5 15.81 223.29 15.3C224.51 14.51 225.73 13.71 227.23 13.47C227.98 13.35 228.71 13.03 229.47 12.94C230.53 12.82 231.61 12.85 232.69 12.78C233.47 12.73 234.25 12.56 235.03 12.57C235.95 12.58 236.87 12.69 237.78 12.83C238.45 12.93 239.12 13.1 239.77 13.32C240.34 13.52 240.9 13.78 241.42 14.09C242.21 14.58 242.93 15.1 243.43 15.99C244.15 17.28 244.3 18.58 244.07 19.97C243.94 20.76 243.89 21.59 243.6 22.32C243.22 23.3 242.77 24.31 241.95 25.02C241.19 25.68 240.39 26.4 239.48 26.76C238.54 27.14 237.53 27.6 236.42 27.39C235.89 27.29 235.33 27.38 234.81 27.26C234.08 27.1 233.39 26.79 232.67 26.6C231.96 26.41 231.24 26.14 230.52 26.14C228.98 26.14 227.02 27.11 226.86 29.16C226.78 30.24 227.01 31.1 227.77 31.75C228.16 32.09 228.77 32.22 229.3 32.36C230.46 32.66 231.55 32.36 232.65 31.98C234.14 31.46 235.62 31.35 237.18 31.89C237.94 32.16 238.41 32.65 238.8 33.2C239.11 33.64 239.19 34.3 239.21 34.87C239.26 36.32 239.23 37.79 238.73 39.18C238.38 40.14 237.99 41.08 237.09 41.69C236.8 41.88 236.57 42.17 236.29 42.37C235.43 43 234.57 43.12 233.49 42.8C232.16 42.4 231.13 41.51 229.88 40.98C229.52 40.83 229.24 40.49 228.89 40.32C227.99 39.89 227.22 40.29 226.52 40.81C225.78 41.35 225.16 41.93 225.1 43C225.04 44.05 224.65 45.08 224.53 46.14C224.41 47.21 224.45 48.3 224.39 49.38C224.32 50.58 224.25 51.78 224.1 52.96C224 53.79 223.76 54.6 223.58 55.42C223.56 55.51 223.56 55.6 223.52 55.67C222.68 57.09 221.94 58.53 220.48 59.51C218.82 60.63 217.03 61.03 215.1 61.23C213.49 61.4 211.95 61.24 210.6 60.42C208.79 59.31 207.49 57.76 207.51 55.46C207.46 55.45 207.42 55.43 207.37 55.42L207.36 55.44Z" fill="#FEFCEF"/>
<path d="M262.6 18.3199C262.71 19.5099 262.6 20.6499 262.08 21.6199C261.63 22.4699 261.46 23.4099 260.92 24.2399C260.41 25.0099 260.04 25.9199 259.49 26.6899C258.76 27.7199 257.93 28.6699 257.23 29.7199C255.8 31.8699 254.38 34.0399 253.44 36.4599C252.53 38.7999 251.69 41.1699 250.9 43.5499C250.53 44.6499 250.24 45.7899 250.11 46.9399C250.04 47.5899 250.28 48.3199 250.52 48.9599C250.72 49.4999 252 49.8199 252.59 49.4999C253.15 49.1899 253.66 48.7799 254.19 48.4199C254.9 47.9399 255.55 47.2999 256.33 47.0399C257.04 46.7999 257.89 46.9699 258.68 46.9899C260.23 47.0199 261.33 47.9099 262.19 49.0399C262.96 50.0499 263.15 51.2799 263.01 52.5599C262.86 53.9699 262.22 55.1599 261.59 56.3999C261.03 57.4999 260.18 58.1899 259.17 58.7899C259.08 58.8399 258.96 58.8899 258.91 58.9699C258.37 59.8599 257.41 59.9999 256.54 60.2299C255.16 60.5999 253.76 60.9499 252.36 61.1899C251.25 61.3799 250.09 61.3199 248.98 61.4999C246.99 61.8199 245 61.6499 243 61.6799C242.61 61.6799 242.23 61.5099 241.84 61.4499C241.45 61.3999 241.05 61.4199 240.66 61.3699C238.99 61.1399 237.47 60.4899 236.06 59.6199C234.7 58.7699 233.9 57.4699 233.84 55.8799C233.81 55.0899 234.13 54.2799 234.31 53.4799C234.6 52.1999 235.43 51.1999 236.09 50.1199C236.52 49.4199 236.96 48.7299 237.46 48.0799C238.18 47.1299 239 46.2599 239.71 45.2999C240.32 44.4699 240.85 43.5799 241.38 42.6899C241.67 42.2099 241.9 41.7099 242.14 41.1999C242.92 39.5099 243.69 37.7899 244 35.9499C244.2 34.7899 244.2 33.5999 244.34 32.4299C244.59 30.3099 244.5 28.1499 245.15 26.0899C245.64 24.5399 245.85 22.9099 246.58 21.4299C246.99 20.5899 247.35 19.7199 247.72 18.8499C247.82 18.6099 247.85 18.3399 247.98 18.1099C248.47 17.2199 249.09 16.4199 249.91 15.7999C250.89 15.0599 251.86 14.3099 252.85 13.5799C253.08 13.4099 253.38 13.2899 253.66 13.2199C255.2 12.8399 256.77 12.4699 258.34 12.8499C259.11 13.0399 259.83 13.4799 260.52 13.8999C260.97 14.1699 261.33 14.5999 261.72 14.9699C261.81 15.0599 261.91 15.1699 261.95 15.2899C262.29 16.2999 262.74 17.2899 262.6 18.3299V18.3199Z" fill="#FEFCEF"/>
<path d="M121.71 48.5899C121.5 49.5499 121.31 50.5099 121.09 51.4699C120.92 52.1999 120.78 52.9499 120.52 53.6499C120.12 54.7099 119.72 55.7899 118.95 56.6699C118.09 57.6599 117.25 58.6799 116.33 59.6099C115.75 60.1999 115 60.6099 114.14 60.7099C112.73 60.8699 111.32 61.0599 109.91 61.1099C109.27 61.1299 108.6 60.9199 107.99 60.7099C106.8 60.2899 105.97 59.4099 105.41 58.3199C105.17 57.8499 105.06 57.3099 104.95 56.7799C104.53 54.7199 104.88 52.7699 105.97 50.9699C106.68 49.7999 107.43 48.6499 108.25 47.5599C108.82 46.8099 109.58 46.2099 110.19 45.4799C110.67 44.8999 111.05 44.2299 111.48 43.5999C112.33 42.3199 113.35 41.1199 113.99 39.7499C114.65 38.3399 115.02 36.7799 115.4 35.2499C115.74 33.8599 115.97 32.4299 116.15 30.9999C116.35 29.4099 116.38 27.7999 116.61 26.2099C116.83 24.6999 117.29 23.2299 117.52 21.7199C117.82 19.8199 119 18.3699 119.94 16.7999C120.3 16.1999 120.95 15.7799 121.47 15.2799C122.31 14.4599 123.3 13.8299 124.37 13.3899C125.17 13.0599 126.01 12.7399 126.94 12.8099C127.8 12.8699 128.68 12.7699 129.53 12.8599C130.16 12.9299 130.75 13.2399 131.38 13.3499C132.3 13.5199 132.75 14.2599 133.26 14.8499C133.78 15.4599 133.9 16.2999 133.97 17.1099C134.13 19.0699 133.49 20.7999 132.37 22.3699C131.06 24.1999 129.71 25.9999 128.43 27.8499C127.86 28.6699 127.52 29.5999 127.97 30.6199C128.28 31.3399 128.95 31.6099 129.73 31.3999C130.63 31.1499 131.08 30.3999 131.61 29.7899C133.1 28.0699 134.2 26.0999 135.06 24.0099C135.7 22.4499 136.23 20.8499 136.93 19.3199C137.34 18.4199 137.93 17.5699 138.58 16.8199C139.81 15.3899 141.2 14.0999 142.98 13.3199C143.39 13.1399 143.86 13.1099 144.31 13.0199C144.92 12.8999 145.52 12.7699 146.13 12.6999C146.44 12.6699 146.76 12.7899 147.08 12.7899C148.73 12.8299 150.08 13.6199 151.45 14.3799C151.99 14.6799 152.31 15.1399 152.56 15.6999C153.02 16.7399 152.81 17.7499 152.6 18.7699C152.42 19.6499 152.27 20.5499 152 21.4099C151.81 22.0299 151.48 22.6099 151.14 23.1699C150.43 24.3199 149.66 25.4499 148.69 26.3999C148.11 26.9699 147.75 27.7399 146.94 28.1099C146.7 28.2199 146.63 28.6499 146.41 28.8599C146 29.2499 145.54 29.6099 145.08 29.9399C144.26 30.5299 143.47 31.1899 142.56 31.6199C141.66 32.0399 140.85 32.5999 139.99 33.0799C139.07 33.5999 138.09 34.0299 137.15 34.5299C136.81 34.7199 136.52 35.0199 136.21 35.2699C135.33 35.9999 134.43 36.6999 133.59 37.4699C133.33 37.7099 133.23 38.1399 133.1 38.4999C132.95 38.8999 132.85 39.3199 132.73 39.7399C132.31 41.1899 132.91 42.7499 134.17 43.6299C134.94 44.1699 135.68 44.7699 136.43 45.3399C136.84 45.6499 137.23 45.9899 137.67 46.2599C138.45 46.7599 138.91 47.4999 139.38 48.2499C139.94 49.1399 140.55 50.0199 140.81 51.0399C141.17 52.4499 141.46 53.8699 140.86 55.3099C140.68 55.7499 140.65 56.2799 140.41 56.6799C140.06 57.2799 139.53 57.7899 139.16 58.3799C138.65 59.1899 137.81 59.5799 137.03 59.9899C135.88 60.5999 134.63 60.9399 133.27 60.9499C132.36 60.9499 131.45 61.0799 130.56 60.8899C129.85 60.7399 129.06 60.8599 128.46 60.3799C127.69 59.7699 126.66 59.4599 126.21 58.4799C126.09 58.2099 125.8 58.0199 125.6 57.7799C125.48 57.6299 125.31 57.4699 125.29 57.2999C125.17 56.4799 125.03 55.6499 125.02 54.8299C125.02 54.1699 125.15 53.4999 125.29 52.8499C125.5 51.8699 125.82 50.9099 125.99 49.9299C126.1 49.2799 126.09 48.5999 126.04 47.9299C125.99 47.3199 125.93 46.6799 125.67 46.1399C125.35 45.4499 125.15 44.6699 124.49 44.1699C123.89 43.7099 123.2 43.9799 122.85 44.5599C122.12 45.7799 121.92 46.4999 121.75 47.8599C121.8 47.8699 121.63 48.5699 121.68 48.5799L121.71 48.5899Z" fill="#FEFCEF"/>
<path d="M182.06 13.7699C183.2 13.7699 184.19 13.7099 185.18 13.7899C186.14 13.8599 187.09 14.0299 188.03 14.2399C189.36 14.5399 190.72 14.7899 191.98 15.2899C192.89 15.6499 193.68 16.3199 194.47 16.9399C195.02 17.3699 195.49 17.9099 195.94 18.4499C196.58 19.2299 197.18 20.0399 197.76 20.8699C198.64 22.1099 198.9 23.5899 199.27 25.0199C199.45 25.7299 199.58 26.4499 199.78 27.1599C200.19 28.6299 200.26 30.1399 200.33 31.6599C200.41 33.4099 200.27 35.1299 200.01 36.8499C199.86 37.8799 199.61 38.9099 199.41 39.9299C199.31 40.4599 199.24 40.9999 199.09 41.5099C198.88 42.2099 198.6 42.8899 198.35 43.5799C198.2 43.9899 198.07 44.4099 197.89 44.8099C197.58 45.4899 197.26 46.1599 196.9 46.8199C196.54 47.4899 196.05 48.0999 195.76 48.7999C195.28 49.9599 194.42 50.8399 193.74 51.8499C193.37 52.3999 192.84 52.8499 192.39 53.3499C192.1 53.6799 191.86 54.0499 191.54 54.3599C190.98 54.8999 190.39 55.3999 189.81 55.9099C189.41 56.2599 189.03 56.6199 188.6 56.9399C188.15 57.2799 187.67 57.5699 187.19 57.8699C186.56 58.2599 185.95 58.7099 185.28 59.0199C184.31 59.4599 183.29 59.7899 182.28 60.1599C181.67 60.3799 181.06 60.5899 180.44 60.7499C179.74 60.9199 179.04 61.0599 178.33 61.1499C176.82 61.3599 175.31 61.5399 173.8 61.7099C173.58 61.7299 173.36 61.6299 173.13 61.6199C172.61 61.6099 172.09 61.6199 171.57 61.6199C170.34 61.6399 169.23 61.2999 168.21 60.5899C167.87 60.3499 167.42 60.2499 167.02 60.0899C166.33 59.8199 165.76 59.3499 165.44 58.7199C165.07 57.9799 164.75 57.1599 164.64 56.3499C164.51 55.4399 164.64 54.4999 164.66 53.5699C164.66 53.1599 164.68 52.7399 164.7 52.3299C164.79 51.0299 164.85 49.7299 164.98 48.4399C165.06 47.7099 165.27 46.9899 165.41 46.2599C165.5 45.7999 165.52 45.3199 165.66 44.8799C165.82 44.3699 166.01 43.8899 166.01 43.3399C166.01 43.1099 166.23 42.8799 166.31 42.6299C166.41 42.3299 166.47 42.0099 166.54 41.6999C166.6 41.4699 166.64 41.2399 166.71 41.0199C166.78 40.7999 166.89 40.5799 166.96 40.3599C167.16 39.7299 167.35 39.0999 167.53 38.4599C167.6 38.2299 167.6 37.9699 167.67 37.7399C168.08 36.4699 168.5 35.1999 168.93 33.9399C169.02 33.6899 169.2 33.4699 169.27 33.2199C169.4 32.7799 169.41 32.2999 169.6 31.8999C170.17 30.6799 170.35 29.3299 171.06 28.1599C171.42 27.5599 171.43 26.7599 171.67 26.0799C171.89 25.4599 172.23 24.8699 172.5 24.2699C172.72 23.7799 172.94 23.2899 173.14 22.7899C173.46 21.9899 173.75 21.1699 174.08 20.3799C174.23 20.0099 174.46 19.6699 174.66 19.3299C175.18 18.4699 175.69 17.6099 176.23 16.7599C176.5 16.3299 176.79 15.9199 177.3 15.6699C177.79 15.4299 178.18 14.9799 178.65 14.6899C179.73 14.0099 180.9 13.6499 182.04 13.8099L182.06 13.7699ZM180.59 45.1099C181.3 45.0399 181.85 45.1099 182.28 44.9099C183.16 44.5199 184.05 44.0799 184.79 43.4799C185.93 42.5699 186.86 41.4599 187.47 40.0899C188.31 38.1899 188.7 36.2299 188.29 34.1799C188.12 33.3399 187.97 32.4199 187.51 31.7499C186.59 30.3999 185.3 29.4399 183.53 29.5999C183.16 29.6299 182.65 29.8499 182.49 30.1399C181.71 31.5299 180.97 32.9499 180.34 34.4099C179.79 35.6899 179.35 37.0199 178.96 38.3499C178.7 39.2399 178.61 40.1899 178.45 41.1099C178.31 41.8699 178.13 42.6199 178.06 43.3899C177.97 44.3199 178.19 44.6099 179.09 44.8599C179.64 45.0099 180.23 45.0499 180.6 45.0999L180.59 45.1099Z" fill="#FEFCEF"/>
<path d="M150.09 61.6701C147.77 61.5401 145.83 60.8601 144.37 59.1601C143.55 58.2001 143.12 57.0601 142.97 55.8001C142.86 54.8701 143.06 54.0201 143.38 53.1401C144.04 51.3201 145.29 49.9201 146.44 48.4401C147 47.7301 147.62 47.0701 148.18 46.3601C148.39 46.0901 148.48 45.7201 148.7 45.4701C149.38 44.6801 149.98 43.8401 150.39 42.8901C150.77 42.0101 151.05 41.1001 151.39 40.2101C151.82 39.0901 152.01 37.9201 152.2 36.7401C152.34 35.8601 152.46 34.9801 152.66 34.1201C153.04 32.4901 152.95 30.8301 153.09 29.1901C153.2 27.9201 153.49 26.6601 153.62 25.3901C153.76 24.0301 154.25 22.7801 154.65 21.4901C155.13 19.9801 155.88 18.6301 156.67 17.2701C157.15 16.4401 157.81 15.7901 158.4 15.0901C159.04 14.3501 160 13.9501 160.93 13.6201C161.83 13.3001 162.76 12.9601 163.7 12.8301C165.11 12.6301 166.55 12.6501 167.84 13.4101C168.45 13.7701 169.16 14.0601 169.63 14.5601C170.06 15.0301 170.34 15.7101 170.49 16.3501C170.65 17.0401 170.51 17.8001 170.65 18.5001C170.79 19.2101 170.62 19.8601 170.43 20.4801C170.17 21.3701 169.69 22.1901 169.37 23.0601C168.43 25.5401 166.73 27.5901 165.57 29.9401C164.89 31.3301 164.12 32.6801 163.51 34.1001C163.17 34.8801 163.06 35.7701 162.84 36.6101C162.55 37.7201 162.22 38.8201 161.96 39.9301C161.74 40.8901 161.59 41.8701 161.44 42.8501C161.28 43.8601 161.15 44.8801 161.02 45.9001C160.94 46.5601 160.96 47.2301 160.82 47.8701C160.61 48.8601 160.61 49.8701 160.4 50.8801C160.12 52.1701 159.79 53.4301 159.27 54.6301C158.57 56.2401 157.72 57.7601 156.32 58.9001C156.11 59.0701 156 59.3801 155.79 59.5501C154.49 60.6501 152.95 61.2601 151.28 61.5601C150.85 61.6401 150.41 61.6601 150.09 61.7001V61.6701Z" fill="#FEFCEF"/>
<path d="M80.36 12.5901C80.9 12.5201 81.44 12.4501 81.99 12.3701C82.06 12.3701 82.13 12.3001 82.19 12.3101C83.13 12.5201 84.12 12.5701 84.89 13.2801C85.37 13.7101 85.83 14.1201 86.24 14.6301C86.98 15.5701 87.21 16.6201 87.12 17.7401C87.04 18.7201 86.88 19.7201 86.56 20.6501C86.17 21.8201 85.61 22.9501 85.08 24.0701C84.59 25.1201 83.9 26.0901 83.57 27.1801C83.21 28.4101 82.93 29.7301 83.63 30.9901C83.86 31.4101 84.02 31.8701 84.24 32.3001C84.42 32.6501 85.38 33.0101 85.79 32.8501C86.17 32.7001 86.51 32.4501 86.87 32.2301C87.03 32.1301 87.19 32.0201 87.34 31.9001C87.49 31.7801 87.67 31.6801 87.75 31.5301C88.48 30.2201 89.03 28.8301 89.23 27.3401C89.29 26.8901 89.04 26.4101 89.02 25.9401C88.98 25.0701 88.97 24.2101 89.01 23.3401C89.07 22.1801 89.16 21.0101 89.28 19.8501C89.43 18.5001 89.82 17.2001 90.36 15.9601C90.73 15.1101 91.43 14.5301 92.35 14.2101C92.86 14.0301 93.3 13.6801 93.79 13.4401C94.05 13.3101 94.34 13.2201 94.63 13.1901C95.36 13.0901 96.1 13.0401 96.83 12.9601C96.88 12.9601 96.94 12.9301 96.99 12.9601C97.54 13.1901 98.1 13.4101 98.64 13.6601C99.16 13.9101 99.73 14.1101 100.15 14.4801C100.71 14.9601 101.17 15.5601 101.62 16.1501C101.89 16.5001 102.02 16.9501 102.25 17.3401C102.58 17.9101 102.66 18.5001 102.58 19.1401C102.53 19.5101 102.63 19.8901 102.63 20.2601C102.63 20.7401 102.65 21.2301 102.59 21.7001C102.42 23.0101 102.3 24.3401 101.97 25.6201C101.67 26.7901 101.12 27.8901 100.69 29.0201C100.53 29.4601 100.43 29.9201 100.25 30.3501C99.69 31.7101 98.71 32.7901 97.78 33.9001C96.65 35.2501 95.47 36.5701 94.22 37.8201C93.37 38.6701 92.32 39.3201 91.45 40.1501C90.76 40.8101 90.14 41.5601 89.58 42.3401C88.93 43.2501 88.35 44.2101 87.83 45.1901C87.41 45.9901 87.06 46.8401 86.8 47.7101C86.54 48.5601 86.39 49.4401 86.24 50.3201C86.11 51.1001 86.08 51.9001 85.94 52.6701C85.8 53.4401 85.66 54.2401 85.37 54.9601C84.83 56.3001 84.12 57.5601 83.1 58.6101C82.17 59.5701 81.09 60.4001 79.8 60.7801C78.75 61.0901 77.64 61.1601 76.55 61.3101C76.32 61.3401 76.08 61.2401 75.84 61.2101C74.41 61.0301 73.07 60.6601 71.79 59.9001C70.3 59.0101 69.88 57.6201 69.55 56.1501C69.22 54.6901 69.72 53.3201 70.24 51.9901C70.58 51.1101 70.98 50.2301 71.47 49.4301C71.87 48.7801 72.46 48.2401 72.97 47.6501C73.07 47.5301 73.19 47.4301 73.29 47.3101C73.83 46.5701 74.46 45.8701 74.87 45.0601C75.26 44.2901 75.52 43.4301 75.69 42.5801C76.15 40.1801 75.38 38.0301 74.24 35.9501C73.31 34.2501 72.25 32.5901 71.71 30.7201C71.42 29.7001 71.27 28.6301 71.15 27.5801C71.02 26.4601 70.94 25.3301 70.95 24.2101C70.95 23.4401 71.15 22.6601 71.28 21.9001C71.56 20.2901 72.15 18.7801 73.03 17.4101C73.63 16.4801 74.39 15.6501 75.1 14.7901C75.35 14.4801 75.64 14.1801 75.97 13.9701C76.35 13.7301 76.78 13.5801 77.21 13.4201C77.83 13.1901 78.46 12.9701 79.1 12.7801C79.5 12.6601 79.92 12.6201 80.34 12.5501V12.6101L80.36 12.5901Z" fill="#FEFCEF"/>
<path d="M11.84 55.44C12.1 54.21 12.25 52.95 12.64 51.76C12.99 50.69 13.56 49.68 14.08 48.67C14.65 47.54 15.24 46.42 15.86 45.32C16.14 44.82 16.49 44.35 16.84 43.89C18.12 42.17 19.07 40.27 19.84 38.28C20.11 37.59 20.22 36.84 20.4 36.11C20.48 35.81 20.49 35.48 20.62 35.2C21.25 33.83 21.23 32.36 21.34 30.91C21.41 29.95 21.26 28.96 21.34 28C21.45 26.44 21.47 24.87 22.07 23.38C22.46 22.39 22.74 21.35 23.2 20.4C23.8 19.16 24.56 18.01 25.57 17.06C26.25 16.42 26.98 15.81 27.77 15.3C28.99 14.51 30.21 13.71 31.71 13.47C32.46 13.35 33.19 13.03 33.95 12.94C35.01 12.82 36.09 12.85 37.17 12.78C37.95 12.73 38.73 12.56 39.51 12.57C40.43 12.58 41.35 12.69 42.26 12.83C42.93 12.93 43.6 13.1 44.25 13.32C44.82 13.52 45.38 13.78 45.9 14.09C46.69 14.58 47.41 15.1 47.91 15.99C48.63 17.28 48.78 18.58 48.55 19.97C48.42 20.76 48.37 21.59 48.08 22.32C47.7 23.3 47.25 24.31 46.43 25.02C45.67 25.68 44.87 26.4 43.96 26.76C43.02 27.14 42.01 27.6 40.9 27.39C40.37 27.29 39.81 27.38 39.29 27.26C38.56 27.1 37.87 26.79 37.15 26.6C36.44 26.41 35.72 26.14 35 26.14C33.46 26.14 31.5 27.11 31.34 29.16C31.26 30.24 31.49 31.1 32.25 31.75C32.64 32.09 33.25 32.22 33.78 32.36C34.94 32.66 36.03 32.36 37.13 31.98C38.62 31.46 40.1 31.35 41.66 31.89C42.42 32.16 42.89 32.65 43.28 33.2C43.59 33.64 43.67 34.3 43.69 34.87C43.74 36.32 43.71 37.79 43.21 39.18C42.86 40.14 42.47 41.08 41.57 41.69C41.28 41.88 41.05 42.17 40.77 42.37C39.91 43 39.05 43.12 37.97 42.8C36.64 42.4 35.61 41.51 34.36 40.98C34 40.83 33.72 40.49 33.37 40.32C32.47 39.89 31.7 40.29 31 40.81C30.26 41.35 29.64 41.93 29.58 43C29.52 44.05 29.13 45.08 29.01 46.14C28.89 47.21 28.93 48.3 28.87 49.38C28.8 50.58 28.73 51.78 28.58 52.96C28.48 53.79 28.24 54.6 28.06 55.42C28.04 55.51 28.04 55.6 28 55.67C27.16 57.09 26.42 58.53 24.96 59.51C23.3 60.63 21.51 61.03 19.58 61.23C17.97 61.4 16.43 61.24 15.08 60.42C13.27 59.31 11.97 57.76 11.99 55.46C11.94 55.45 11.9 55.43 11.85 55.42L11.84 55.44Z" fill="#FEFCEF"/>
<path d="M67.08 18.3202C67.19 19.5102 67.08 20.6502 66.56 21.6202C66.11 22.4702 65.94 23.4102 65.4 24.2402C64.89 25.0102 64.52 25.9202 63.97 26.6902C63.24 27.7202 62.41 28.6702 61.71 29.7202C60.28 31.8702 58.86 34.0402 57.92 36.4602C57.01 38.8002 56.17 41.1702 55.38 43.5502C55.01 44.6502 54.72 45.7902 54.59 46.9402C54.52 47.5902 54.76 48.3202 55 48.9602C55.2 49.5002 56.48 49.8202 57.07 49.5002C57.63 49.1902 58.14 48.7802 58.67 48.4202C59.38 47.9402 60.03 47.3002 60.81 47.0402C61.52 46.8002 62.37 46.9702 63.16 46.9902C64.71 47.0202 65.81 47.9102 66.67 49.0402C67.44 50.0502 67.63 51.2802 67.49 52.5602C67.34 53.9702 66.7 55.1602 66.07 56.4002C65.51 57.5002 64.66 58.1902 63.65 58.7902C63.56 58.8402 63.44 58.8902 63.39 58.9702C62.85 59.8602 61.89 60.0002 61.02 60.2302C59.64 60.6002 58.24 60.9502 56.84 61.1902C55.73 61.3802 54.57 61.3202 53.46 61.5002C51.47 61.8202 49.48 61.6502 47.48 61.6802C47.09 61.6802 46.71 61.5102 46.32 61.4502C45.93 61.4002 45.53 61.4202 45.14 61.3702C43.47 61.1402 41.95 60.4902 40.54 59.6202C39.18 58.7702 38.38 57.4702 38.32 55.8802C38.29 55.0902 38.61 54.2802 38.79 53.4802C39.08 52.2002 39.91 51.2002 40.57 50.1202C41 49.4202 41.44 48.7302 41.94 48.0802C42.66 47.1302 43.48 46.2602 44.19 45.3002C44.8 44.4702 45.33 43.5802 45.86 42.6902C46.15 42.2102 46.38 41.7102 46.62 41.2002C47.4 39.5102 48.17 37.7902 48.48 35.9502C48.68 34.7902 48.68 33.6002 48.82 32.4302C49.07 30.3102 48.98 28.1502 49.63 26.0902C50.12 24.5402 50.33 22.9102 51.06 21.4302C51.47 20.5902 51.83 19.7202 52.2 18.8502C52.3 18.6102 52.33 18.3402 52.46 18.1102C52.95 17.2202 53.57 16.4202 54.39 15.8002C55.37 15.0602 56.34 14.3102 57.33 13.5802C57.56 13.4102 57.86 13.2902 58.14 13.2202C59.68 12.8402 61.25 12.4702 62.82 12.8502C63.59 13.0402 64.31 13.4802 65 13.9002C65.45 14.1702 65.81 14.6002 66.2 14.9702C66.29 15.0602 66.39 15.1702 66.43 15.2902C66.77 16.3002 67.22 17.2902 67.08 18.3302V18.3202Z" fill="#FEFCEF"/>
  </g>
  <!-- Tagline -->
  <text x="430" y="248" font-family="'Arial Black', Arial, sans-serif" font-size="34" font-weight="900" letter-spacing="1" text-anchor="middle" fill="white">COME FOR THE COFFEE.</text>
  <text x="430" y="296" font-family="'Arial Black', Arial, sans-serif" font-size="34" font-weight="900" letter-spacing="1" text-anchor="middle" fill="white">STAY FOR THE ATMOSPHERE.</text>
</svg>